<?xml version="1.0" encoding="UTF-8"?>
<svg id="svg89" xmlns="http://www.w3.org/2000/svg" version="1.1" xmlns:xlink="http://www.w3.org/1999/xlink" viewBox="0 0 1062.4827 535.174">
  <!-- Generator: Adobe Illustrator 29.3.1, SVG Export Plug-In . SVG Version: 2.1.0 Build 151)  -->
  <defs>
    <style>
      .st0 {
        fill: #37414c;
      }

      .st1 {
        fill: #70777f;
      }

      .st2 {
        fill: gold;
      }
    </style>
  </defs>
  <g id="Third_Floor">
    <g id="Ladders-3">
      <path id="ladder-25" class="st2" d="M521.6044,459.9254l-.353,2.5443,4.1889.5663.353-2.5443-4.1889-.5663Z"/>
      <path id="ladder-26" class="st2" d="M516.3434,445.8369l8.0178,1.1113.2662-1.9207-8.0178-1.1113-.2662,1.9207Z"/>
      <path id="ladder-27" class="st2" d="M510.2203,488.5883l7.8939,1.0941.2621-1.891-7.8939-1.0941-.2621,1.891Z"/>
      <polygon class="st2" points="422.6934 245.9893 421.4615 245.6966 421.367 246.1004 423.0542 246.4975 422.7611 247.8841 420.0591 247.2905 420.8125 244.1234 423.0082 244.6023 422.6934 245.9893"/>
      <polygon class="st2" points="430.2602 278.9759 430.6647 277.045 426.9029 276.2594 427.1775 275.0905 432.4058 276.2274 431.4463 280.7247 425.3429 279.3502 425.6385 277.9963 430.2602 278.9759"/>
      <polygon class="st2" points="425.3598 268.7297 423.9356 268.4084 424.2326 267.1223 425.6372 267.4287 425.3598 268.7297"/>
      <polygon class="st2" points="420.2943 294.7008 424.5003 295.5933 424.2552 296.8325 420.0451 295.9655 420.2943 294.7008"/>
      <rect class="st2" x="432.9531" y="296.5191" width="1.3" height="3.2" transform="translate(49.5488 657.8259) rotate(-77.6351)"/>
      <rect class="st2" x="433.3929" y="294.496" width="1.3" height="3.2" transform="translate(51.8706 656.6656) rotate(-77.6351)"/>
    </g>
    <g id="Buildings-3">
      <g id="_x33_s-3f">
        <g id="_x33_s-3f-locked">
          <path class="st0" d="M512.0628,450.399l.2067-1.4906,3.0197.4184,3.0207.4194-.2067,1.4906-.2067,1.4906-3.0197-.4184-3.0207-.4184.2067-1.4916Z"/>
          <path class="st0" d="M520.4445,457.8361l.2067-1.4906,3.0247.4243,3.0247.4233-.2018,1.4866-.2008,1.4876-3.0296-.4204-3.0306-.4204.2068-1.4906-.0002.0002Z"/>
          <path class="st0" d="M508.6455,475.0554l.2047-1.4807,3.0207.4184,3.0207.4184-.2057,1.4807-.2047,1.4817-3.0207-.4184-3.0207-.4194.2057-1.4807h0Z"/>
          <path class="st0" d="M517.4535,479.4134l.2057-1.4807,3.0296.4204,3.0306.4194-.2057,1.4817-.2047,1.4807-3.0306-.4204-3.0296-.4194.2047-1.4817Z"/>
          <path class="st0" d="M507.3636,484.3006l.2067-1.4906,3.0207.4184,3.0207.4184-.2067,1.4906-.2067,1.4906-3.0207-.4184-3.0197-.4184.2057-1.4906h0Z"/>
        </g>
        <path class="st1" d="M495.8277,476.4164l1.0673-7.6962,6.1374.8506,6.1374.8506-.4807,3.4658-.4807,3.4658.0485.0069.0485.0059.0494-.3581.0504-.3581,3.083.4223,3.084.4233.3027-2.1444.3017-2.1434-.0584-.0079-.0574-.0079-.0772.5519-.0762.5519-3.0306-.4204-3.0296-.4204.2107-1.4847.2107-1.4856,3.0267.4144,3.0257.4144-.0772.5519-.0762.5519.0584.0079.0584.0079.1593-1.1513.1593-1.1523-.0574-.0079-.0584-.0079-.0762.5519-.0772.5509-3.0296-.4194-3.0306-.4204.2117-1.4847.2107-1.4856,3.0257.4144,3.0257.4144-.0762.5519-.0772.5519.0584.0079.0584.0079.1593-1.1523.1602-1.1513-.0584-.0089-.0584-.0079-.0762.5519-.0762.5519-3.0247-.4243-3.0247-.4243.2008-1.4866.2018-1.4866,3.0296.4204,3.0296.4204-.0762.5519-.0762.5509.0584.0089.0574.0079.0831-.6004.0831-.6004-3.088-.4283-3.088-.4273.4204-3.0306.4194-3.0296,3.084.4223,3.084.4223.0831-.6004.0831-.5994-.0485-.0069-.0475-.0069-.0811.546-.0811.547-3.0296-.4204-3.0296-.4204.2047-1.4807.2057-1.4807,3.0296.4194,3.0306.4204-.0752.542-.0752.542.0584.0079.0574.0079.1543-1.1474.1543-1.1484-.0485-.0059-.0485-.0069-.0811.546-.0811.546-3.0296-.4194-3.0296-.4204.2107-1.4847.2107-1.4856,3.0267.4144,3.0257.4144-.0772.5519-.0762.5519.0584.0079.0574.0079.3739-2.6914.3729-2.6914-.0584-.0079-.0584-.0079-.0762.5519-.0762.5519-3.0247-.4243-3.0247-.4243.2008-1.4866.2008-1.4866,3.0306.4204,3.0296.4194-.0762.5519-.0762.5519.0574.0079.0584.0079.0772-.5519.0762-.5509.5519.0762.5519.0762.0395-.2674.7745.1078-.0395.2674.5509.0762.5519.0762-.0762.5519-.0762.5519.0485.0069.0485.0069.0762-.5519.0762-.5519,3.0306.4204,3.0296.4194-.2067,1.4906-.2067,1.4916-3.0296-.4204-3.0306-.4204.0772-.5509.0762-.5519-.0475-.0069-.0475-.0069-.0871.5856-.0871.5846-.0722.5668-.0732.5678.0475.0059.0475.0069.0762-.5519.0772-.5519,3.0296.4204,3.0296.4194-.2057,1.4916-.2067,1.4906-3.0306-.4204-3.0296-.4194.0762-.5519.0772-.5519-.0475-.0069-.0475-.0059-.0871.5846-.0871.5846-.0732.5678-.0722.5668.0475.0069.0475.0059.0762-.5519.0762-.5519,3.0247.4243,3.0247.4243-.2008,1.4866-.2008,1.4866-3.0306-.4194-3.0296-.4204.0762-.5519.0762-.5519-.0475-.0059-.0475-.0069-.0841.5658-.0841.5648-.2136,1.5836-.2146,1.5836,2.3036.3195,2.3036.3195-.0999.7161-.0989.7161-.455-.0623-.455-.0633-.1117.7685-.1108.7695-1.8447-.2512-1.8447-.2502-.4342,3.0919-.4332,3.0919-.0762.5865-.0762.5865.0485.0069.0475.0059.0772-.5519.0762-.5509.3581.0494.3581.0494.0069-.0485.0069-.0485-.3581-.0494-.359-.0494.4204-3.0306.4204-3.0296,3.0296.4204,3.0296.4194-.2067,1.4906-.2067,1.4916-2.2839-.3175-2.2848-.3165-.0069.0485-.0069.0485,2.2848.3165,2.2848.3175-.2067,1.4906-.2067,1.4906-2.2848-.3165-2.2839-.3165-.0069.0485-.0069.0485,2.2848.3165,2.2848.3165-.2067,1.4906-.2067,1.4906-3.0306-.4194-3.0296-.4204.0762-.5519.0772-.5519-.0485-.0059-.0475-.0069-.0841.5658-.0841.5648-.1563,1.1681-.1553,1.1671.0475.0059.0475.0069.1573-1.1325.1563-1.1325,3.0247.4243,3.0247.4243-.4144,3.0257-.4144,3.0257-3.0296-.4204-3.0306-.4194.1563-1.1236.1553-1.1226-.0485-.0069-.0485-.0069-.1563,1.1236-.1553,1.1226-.2216,1.5974-.2216,1.5974-.0762.5519-.0762.5519.0485.0059.0485.0069.0762-.5519.0772-.5519,3.0296.4204,3.0306.4204-.2117,1.4847-.2107,1.4856-3.0257-.4144-3.0257-.4144.0762-.5519.0762-.5519-.0465-.0069-.0475-.0059-.0871.5846-.0871.5846-.0732.5678-.0732.5668.0485.0069.0475.0059.0762-.5509.0762-.5519,3.0306.4194,3.0296.4204-.2067,1.4906-.2067,1.4906-3.0296-.4194-3.0306-.4204.0772-.5519.0762-.5519-.0485-.0059-.0485-.0069-.0762.5519-.0762.5519-1.4916-.2067-1.4906-.2067.4273-3.0791.4263-3.0781-3.083-.4323-3.082-.4323.0435-.3541.0435-.3541-.0475-.0059-.0485-.0069-.4787,3.4559-.4738,3.4173-6.1374-.8506-6.1374-.8506,1.0612-7.6576h.0002Z"/>
      </g>
      <polygon class="st1" points="426.0104 248.6469 426.6372 245.4677 423.0082 244.6023 422.6934 245.9893 423.14 246.0913 422.7611 247.8841 426.0104 248.6469"/>
      <path class="st1" d="M425.2388,279.8271l2.5986-11.9031-2.2003-.4954-.2773,1.301-1.6223,7.0112-.3205-.0598-.2323-.0692c0-2.5123-1.9962-4.2739-4.5085-4.2739s-4.5491,2.0367-4.5491,4.5491,2.0367,4.5491,4.5491,4.5491c2.0121,0,3.8368-.9556,4.3792-3.3862l.1585.0241.2037.0497-1.103,4.767-9.3475-2.058-1.9716,9.3947,15.9089,3.558-.0958.4318-1.7517-.3662-.8017,3.9816,3.5566.7399,3.5217-16.3282-6.0947-1.4171h0ZM427.269,290.9406l-6.0005-1.3501,1.3475-5.6994,1.6257.3223.7007-2.7049,4.0924.992-1.7659,8.44h0Z"/>
      <path class="st1" d="M442.2497,297.2003l7.0867-31.8207-13.6983-2.849-6.7035,31.6515-.7341,3.4659,3.7006.7635.7183-3.2929,3.1258.6852,6.5045,1.3964h0ZM439.2375,289.4986c-1.4661,0-3.2-1.1356-3.2-3.2,0-1.5829,1.1872-3.2,3.2467-3.2,1.9467,0,3.1533,1.6325,3.1533,3.2,0,1.446-1.0901,3.2-3.2,3.2h0ZM440.9375,280.9986c-2.1192,0-3.2-1.7226-3.2-3.2,0-1.8397,1.4586-3.2,3.2-3.2,2.0457,0,3.2,1.7473,3.2,3.2,0,1.4406-1.0806,3.2-3.2,3.2ZM442.8375,272.3986c-2.1856,0-3.2-1.8578-3.2-3.2,0-1.975,1.6226-3.2,3.2-3.2,1.7214,0,3.2,1.3909,3.2,3.2,0,1.9227-1.6261,3.2-3.2,3.2Z"/>
    </g>
  </g>
</svg>